<svg viewBox="0 0 64 64" xmlns="http://www.w3.org/2000/svg">
  <rect width="64" height="64" rx="14" fill="#17251D"/>
  <g transform="translate(0,0)">
    <path d="M32 8 L45 13 L51 23 L49.5 33 L53 38 L46 41 L41 51 L32 55 L23 51 L18 41 L11 38 L14.5 33 L13 23 L19 13 Z" fill="#344A32" stroke="#C1A548" stroke-width="1.6" stroke-linejoin="round"/>
    <path d="M20 27 L27 24.5 L32 27 L37 24.5 L44 27" fill="none" stroke="#C1A548" stroke-width="2" stroke-linecap="round" stroke-linejoin="round"/>
    <path d="M24.5 31 L28.5 31 M35.5 31 L39.5 31" stroke="#E4D8BA" stroke-width="2.6" stroke-linecap="round"/>
    <path d="M26 39 L32 36.5 L38 39 L36.5 45 L32 47 L27.5 45 Z" fill="none" stroke="#C8B98C" stroke-width="1.6" stroke-linejoin="round"/>
  </g>
</svg>
